<svg width="23" height="21" viewBox="0 0 23 21" fill="none" xmlns="http://www.w3.org/2000/svg">
<path d="M0.171776 17.7414C0.16886 19.5027 1.6269 20.8509 3.53649 20.8528L19.2625 20.8679C21.1721 20.8697 22.6346 19.5243 22.6375 17.763L22.6512 9.47475L0.185494 9.45319L0.171776 17.7414ZM19.2933 2.21929L17.0468 2.21714L17.0485 1.18111C17.0495 0.559488 16.6009 0.144644 15.9269 0.143997C15.2529 0.14335 14.8029 0.557332 14.8019 1.17895L14.8002 2.21498L8.06049 2.20851L8.06221 1.17248C8.06324 0.550864 7.61461 0.136021 6.94064 0.135374C6.26667 0.134727 5.81667 0.548708 5.81564 1.17033L5.81392 2.20636L3.56735 2.2042C1.65777 2.20237 0.195269 3.54781 0.192354 5.30906L0.188924 7.38113L22.6546 7.40268L22.6581 5.33062C22.661 3.56937 21.2029 2.22113 19.2933 2.21929Z" fill="white"/>
</svg>
