<svg width="23" height="21" viewBox="0 0 23 21" fill="none" xmlns="http://www.w3.org/2000/svg">
<path d="M22.2084 10.836L12.0845 0.45739C11.6582 0.0194118 10.8393 0.0194118 10.4129 0.45739L0.289074 10.836C0.143354 10.985 0.0477042 11.1699 0.013755 11.3682C-0.0201941 11.5664 0.00902008 11.7695 0.0978457 11.9527C0.277826 12.3274 0.680531 12.5682 1.12486 12.5682H3.3746V19.8332C3.3746 20.1085 3.49312 20.3725 3.70407 20.5671C3.91503 20.7617 4.20114 20.8711 4.49948 20.8711H7.8741C8.17244 20.8711 8.45855 20.7617 8.66951 20.5671C8.88046 20.3725 8.99898 20.1085 8.99898 19.8332V15.6818H13.4985V19.8332C13.4985 20.1085 13.617 20.3725 13.8279 20.5671C14.0389 20.7617 14.325 20.8711 14.6233 20.8711H17.998C18.2963 20.8711 18.5824 20.7617 18.7934 20.5671C19.0043 20.3725 19.1228 20.1085 19.1228 19.8332V12.5682H21.3726C21.5904 12.5691 21.8039 12.5114 21.9868 12.4023C22.1698 12.2932 22.3144 12.1373 22.403 11.9537C22.4916 11.77 22.5203 11.5666 22.4858 11.3681C22.4512 11.1697 22.3548 10.9848 22.2084 10.836Z" fill="white"/>
</svg>
